<mxfile host="app.diagrams.net" agent="Mozilla/5.0 (Windows NT 10.0; Win64; x64; rv:137.0) Gecko/20100101 Firefox/137.0" version="26.2.9">
  <diagram name="Page-1" id="57NQ7C1dx18U57K2fuWj">
    <mxGraphModel dx="1904" dy="1044" grid="1" gridSize="10" guides="1" tooltips="1" connect="1" arrows="1" fold="1" page="1" pageScale="1" pageWidth="827" pageHeight="1169" math="0" shadow="0">
      <root>
        <mxCell id="0" />
        <mxCell id="1" parent="0" />
        <mxCell id="Ufxc-FMci68aDgZi-Pgl-3" value="" style="endArrow=classic;html=1;rounded=0;exitX=0.5;exitY=1;exitDx=0;exitDy=0;" edge="1" parent="1">
          <mxGeometry width="50" height="50" relative="1" as="geometry">
            <mxPoint x="210" y="138" as="sourcePoint" />
            <mxPoint x="210" y="178" as="targetPoint" />
          </mxGeometry>
        </mxCell>
        <mxCell id="Ufxc-FMci68aDgZi-Pgl-4" value="Definir tema do projeto" style="rounded=0;whiteSpace=wrap;html=1;fillColor=#f8cecc;strokeColor=#b85450;" vertex="1" parent="1">
          <mxGeometry x="150" y="178" width="120" height="60" as="geometry" />
        </mxCell>
        <mxCell id="Ufxc-FMci68aDgZi-Pgl-6" value="" style="endArrow=classic;html=1;rounded=0;exitX=0.5;exitY=1;exitDx=0;exitDy=0;" edge="1" parent="1" source="Ufxc-FMci68aDgZi-Pgl-4">
          <mxGeometry width="50" height="50" relative="1" as="geometry">
            <mxPoint x="190" y="298" as="sourcePoint" />
            <mxPoint x="210" y="278" as="targetPoint" />
          </mxGeometry>
        </mxCell>
        <mxCell id="Ufxc-FMci68aDgZi-Pgl-7" value="" style="rounded=0;whiteSpace=wrap;html=1;fillColor=#f8cecc;strokeColor=#b85450;" vertex="1" parent="1">
          <mxGeometry x="150" y="278" width="120" height="60" as="geometry" />
        </mxCell>
        <mxCell id="Ufxc-FMci68aDgZi-Pgl-8" value="Definir palavras-chave" style="text;html=1;align=center;verticalAlign=middle;whiteSpace=wrap;rounded=0;" vertex="1" parent="1">
          <mxGeometry x="150" y="278" width="120" height="60" as="geometry" />
        </mxCell>
        <mxCell id="Ufxc-FMci68aDgZi-Pgl-9" value="" style="endArrow=classic;html=1;rounded=0;exitX=0.5;exitY=1;exitDx=0;exitDy=0;" edge="1" parent="1" source="Ufxc-FMci68aDgZi-Pgl-8">
          <mxGeometry width="50" height="50" relative="1" as="geometry">
            <mxPoint x="200" y="378" as="sourcePoint" />
            <mxPoint x="210" y="378" as="targetPoint" />
          </mxGeometry>
        </mxCell>
        <mxCell id="Ufxc-FMci68aDgZi-Pgl-10" value="" style="rounded=0;whiteSpace=wrap;html=1;fillColor=#f8cecc;strokeColor=#b85450;" vertex="1" parent="1">
          <mxGeometry x="150" y="378" width="120" height="60" as="geometry" />
        </mxCell>
        <mxCell id="Ufxc-FMci68aDgZi-Pgl-11" value="Selecionar bases de dados" style="text;html=1;align=center;verticalAlign=middle;whiteSpace=wrap;rounded=0;" vertex="1" parent="1">
          <mxGeometry x="150" y="378" width="120" height="60" as="geometry" />
        </mxCell>
        <mxCell id="Ufxc-FMci68aDgZi-Pgl-12" value="" style="rounded=0;whiteSpace=wrap;html=1;fillColor=#f8cecc;strokeColor=#b85450;" vertex="1" parent="1">
          <mxGeometry x="150" y="478" width="120" height="60" as="geometry" />
        </mxCell>
        <mxCell id="Ufxc-FMci68aDgZi-Pgl-13" value="" style="endArrow=classic;html=1;rounded=0;exitX=0.5;exitY=1;exitDx=0;exitDy=0;" edge="1" parent="1" source="Ufxc-FMci68aDgZi-Pgl-11">
          <mxGeometry width="50" height="50" relative="1" as="geometry">
            <mxPoint x="160" y="528" as="sourcePoint" />
            <mxPoint x="210" y="478" as="targetPoint" />
          </mxGeometry>
        </mxCell>
        <mxCell id="Ufxc-FMci68aDgZi-Pgl-14" value="" style="rounded=0;whiteSpace=wrap;html=1;fillColor=#f8cecc;strokeColor=#b85450;" vertex="1" parent="1">
          <mxGeometry x="150" y="578" width="120" height="60" as="geometry" />
        </mxCell>
        <mxCell id="Ufxc-FMci68aDgZi-Pgl-15" value="Realizar busca inicial pelos termos" style="text;html=1;align=center;verticalAlign=middle;whiteSpace=wrap;rounded=0;" vertex="1" parent="1">
          <mxGeometry x="150" y="478" width="120" height="60" as="geometry" />
        </mxCell>
        <mxCell id="Ufxc-FMci68aDgZi-Pgl-16" value="" style="endArrow=classic;html=1;rounded=0;exitX=0.5;exitY=1;exitDx=0;exitDy=0;entryX=0.5;entryY=0;entryDx=0;entryDy=0;" edge="1" parent="1" source="Ufxc-FMci68aDgZi-Pgl-15" target="Ufxc-FMci68aDgZi-Pgl-14">
          <mxGeometry width="50" height="50" relative="1" as="geometry">
            <mxPoint x="320" y="828" as="sourcePoint" />
            <mxPoint x="370" y="778" as="targetPoint" />
            <Array as="points" />
          </mxGeometry>
        </mxCell>
        <mxCell id="Ufxc-FMci68aDgZi-Pgl-17" value="Ler títulos e resumos" style="text;html=1;align=center;verticalAlign=middle;whiteSpace=wrap;rounded=0;" vertex="1" parent="1">
          <mxGeometry x="150" y="578" width="120" height="60" as="geometry" />
        </mxCell>
        <mxCell id="Ufxc-FMci68aDgZi-Pgl-44" style="edgeStyle=orthogonalEdgeStyle;rounded=0;orthogonalLoop=1;jettySize=auto;html=1;exitX=1;exitY=0.5;exitDx=0;exitDy=0;entryX=0;entryY=0.5;entryDx=0;entryDy=0;" edge="1" parent="1" source="Ufxc-FMci68aDgZi-Pgl-21" target="Ufxc-FMci68aDgZi-Pgl-26">
          <mxGeometry relative="1" as="geometry" />
        </mxCell>
        <mxCell id="Ufxc-FMci68aDgZi-Pgl-55" style="edgeStyle=orthogonalEdgeStyle;rounded=0;orthogonalLoop=1;jettySize=auto;html=1;exitX=0.5;exitY=1;exitDx=0;exitDy=0;entryX=0;entryY=0.5;entryDx=0;entryDy=0;" edge="1" parent="1" source="Ufxc-FMci68aDgZi-Pgl-21" target="Ufxc-FMci68aDgZi-Pgl-45">
          <mxGeometry relative="1" as="geometry" />
        </mxCell>
        <mxCell id="Ufxc-FMci68aDgZi-Pgl-21" value="" style="rhombus;whiteSpace=wrap;html=1;fillColor=#dae8fc;strokeColor=#6c8ebf;" vertex="1" parent="1">
          <mxGeometry x="310" y="568" width="100" height="100" as="geometry" />
        </mxCell>
        <mxCell id="Ufxc-FMci68aDgZi-Pgl-22" value="" style="endArrow=classic;html=1;rounded=0;exitX=1.012;exitY=0.673;exitDx=0;exitDy=0;exitPerimeter=0;" edge="1" parent="1" source="Ufxc-FMci68aDgZi-Pgl-17">
          <mxGeometry width="50" height="50" relative="1" as="geometry">
            <mxPoint x="300" y="638" as="sourcePoint" />
            <mxPoint x="310" y="618" as="targetPoint" />
          </mxGeometry>
        </mxCell>
        <mxCell id="Ufxc-FMci68aDgZi-Pgl-23" value="O artigo é relevante ao tema?" style="text;html=1;align=center;verticalAlign=middle;whiteSpace=wrap;rounded=0;" vertex="1" parent="1">
          <mxGeometry x="330" y="603" width="60" height="30" as="geometry" />
        </mxCell>
        <mxCell id="Ufxc-FMci68aDgZi-Pgl-26" value="" style="rounded=0;whiteSpace=wrap;html=1;fillColor=#f8cecc;strokeColor=#b85450;" vertex="1" parent="1">
          <mxGeometry x="450" y="588" width="120" height="60" as="geometry" />
        </mxCell>
        <mxCell id="Ufxc-FMci68aDgZi-Pgl-27" value="" style="rounded=0;whiteSpace=wrap;html=1;fillColor=#f8cecc;strokeColor=#b85450;" vertex="1" parent="1">
          <mxGeometry x="440" y="708" width="120" height="60" as="geometry" />
        </mxCell>
        <mxCell id="Ufxc-FMci68aDgZi-Pgl-31" value="&lt;div&gt;Sim&lt;/div&gt;" style="text;html=1;align=center;verticalAlign=middle;whiteSpace=wrap;rounded=0;" vertex="1" parent="1">
          <mxGeometry x="390" y="588" width="60" height="30" as="geometry" />
        </mxCell>
        <mxCell id="Ufxc-FMci68aDgZi-Pgl-45" value="Descartar" style="text;html=1;align=center;verticalAlign=middle;whiteSpace=wrap;rounded=0;" vertex="1" parent="1">
          <mxGeometry x="440" y="708" width="120" height="60" as="geometry" />
        </mxCell>
        <mxCell id="Ufxc-FMci68aDgZi-Pgl-48" style="edgeStyle=orthogonalEdgeStyle;rounded=0;orthogonalLoop=1;jettySize=auto;html=1;exitX=1;exitY=0.5;exitDx=0;exitDy=0;entryX=0;entryY=0.5;entryDx=0;entryDy=0;" edge="1" parent="1" source="Ufxc-FMci68aDgZi-Pgl-46" target="Ufxc-FMci68aDgZi-Pgl-47">
          <mxGeometry relative="1" as="geometry" />
        </mxCell>
        <mxCell id="Ufxc-FMci68aDgZi-Pgl-46" value="Adicionar à seleção preliminar" style="text;html=1;align=center;verticalAlign=middle;whiteSpace=wrap;rounded=0;" vertex="1" parent="1">
          <mxGeometry x="450" y="588" width="120" height="60" as="geometry" />
        </mxCell>
        <mxCell id="Ufxc-FMci68aDgZi-Pgl-47" value="" style="rounded=0;whiteSpace=wrap;html=1;fillColor=#f8cecc;strokeColor=#b85450;" vertex="1" parent="1">
          <mxGeometry x="620" y="588" width="120" height="60" as="geometry" />
        </mxCell>
        <mxCell id="Ufxc-FMci68aDgZi-Pgl-50" style="edgeStyle=orthogonalEdgeStyle;rounded=0;orthogonalLoop=1;jettySize=auto;html=1;exitX=0.5;exitY=1;exitDx=0;exitDy=0;" edge="1" parent="1" source="Ufxc-FMci68aDgZi-Pgl-49">
          <mxGeometry relative="1" as="geometry">
            <mxPoint x="679.8888888888889" y="688.0000000000002" as="targetPoint" />
          </mxGeometry>
        </mxCell>
        <mxCell id="Ufxc-FMci68aDgZi-Pgl-49" value="Ler o artigo completo, atende aos critérios?" style="text;html=1;align=center;verticalAlign=middle;whiteSpace=wrap;rounded=0;" vertex="1" parent="1">
          <mxGeometry x="620" y="588" width="120" height="60" as="geometry" />
        </mxCell>
        <mxCell id="Ufxc-FMci68aDgZi-Pgl-57" value="Não" style="text;html=1;align=center;verticalAlign=middle;whiteSpace=wrap;rounded=0;" vertex="1" parent="1">
          <mxGeometry x="370" y="708" width="60" height="30" as="geometry" />
        </mxCell>
        <mxCell id="Ufxc-FMci68aDgZi-Pgl-59" value="" style="rounded=0;whiteSpace=wrap;html=1;fillColor=#f8cecc;strokeColor=#b85450;" vertex="1" parent="1">
          <mxGeometry x="620" y="828" width="120" height="60" as="geometry" />
        </mxCell>
        <mxCell id="Ufxc-FMci68aDgZi-Pgl-63" style="edgeStyle=orthogonalEdgeStyle;rounded=0;orthogonalLoop=1;jettySize=auto;html=1;exitX=0;exitY=0.5;exitDx=0;exitDy=0;entryX=1;entryY=0.5;entryDx=0;entryDy=0;" edge="1" parent="1" source="Ufxc-FMci68aDgZi-Pgl-60" target="Ufxc-FMci68aDgZi-Pgl-45">
          <mxGeometry relative="1" as="geometry" />
        </mxCell>
        <mxCell id="Ufxc-FMci68aDgZi-Pgl-65" style="edgeStyle=orthogonalEdgeStyle;rounded=0;orthogonalLoop=1;jettySize=auto;html=1;exitX=0.5;exitY=1;exitDx=0;exitDy=0;" edge="1" parent="1" source="Ufxc-FMci68aDgZi-Pgl-60" target="Ufxc-FMci68aDgZi-Pgl-59">
          <mxGeometry relative="1" as="geometry" />
        </mxCell>
        <mxCell id="Ufxc-FMci68aDgZi-Pgl-60" value="" style="rhombus;whiteSpace=wrap;html=1;fillColor=#dae8fc;strokeColor=#6c8ebf;" vertex="1" parent="1">
          <mxGeometry x="630" y="688" width="100" height="100" as="geometry" />
        </mxCell>
        <mxCell id="Ufxc-FMci68aDgZi-Pgl-64" value="Não" style="text;html=1;align=center;verticalAlign=middle;whiteSpace=wrap;rounded=0;" vertex="1" parent="1">
          <mxGeometry x="570" y="708" width="60" height="30" as="geometry" />
        </mxCell>
        <mxCell id="Ufxc-FMci68aDgZi-Pgl-66" value="Manter na lista final" style="text;html=1;align=center;verticalAlign=middle;whiteSpace=wrap;rounded=0;" vertex="1" parent="1">
          <mxGeometry x="650" y="723" width="60" height="30" as="geometry" />
        </mxCell>
        <mxCell id="Ufxc-FMci68aDgZi-Pgl-67" value="Sim" style="text;html=1;align=center;verticalAlign=middle;whiteSpace=wrap;rounded=0;" vertex="1" parent="1">
          <mxGeometry x="670" y="788" width="60" height="30" as="geometry" />
        </mxCell>
        <mxCell id="Ufxc-FMci68aDgZi-Pgl-69" style="edgeStyle=orthogonalEdgeStyle;rounded=0;orthogonalLoop=1;jettySize=auto;html=1;exitX=0.5;exitY=1;exitDx=0;exitDy=0;" edge="1" parent="1" source="Ufxc-FMci68aDgZi-Pgl-68">
          <mxGeometry relative="1" as="geometry">
            <mxPoint x="680.1176470588235" y="928" as="targetPoint" />
          </mxGeometry>
        </mxCell>
        <mxCell id="Ufxc-FMci68aDgZi-Pgl-68" value="Manter na lista final" style="text;html=1;align=center;verticalAlign=middle;whiteSpace=wrap;rounded=0;" vertex="1" parent="1">
          <mxGeometry x="620" y="828" width="120" height="60" as="geometry" />
        </mxCell>
        <mxCell id="Ufxc-FMci68aDgZi-Pgl-70" value="" style="rounded=0;whiteSpace=wrap;html=1;fillColor=#f8cecc;strokeColor=#b85450;" vertex="1" parent="1">
          <mxGeometry x="620" y="928" width="120" height="60" as="geometry" />
        </mxCell>
        <mxCell id="Ufxc-FMci68aDgZi-Pgl-76" style="edgeStyle=orthogonalEdgeStyle;rounded=0;orthogonalLoop=1;jettySize=auto;html=1;exitX=0.5;exitY=1;exitDx=0;exitDy=0;" edge="1" parent="1" source="Ufxc-FMci68aDgZi-Pgl-71" target="Ufxc-FMci68aDgZi-Pgl-75">
          <mxGeometry relative="1" as="geometry" />
        </mxCell>
        <mxCell id="Ufxc-FMci68aDgZi-Pgl-71" value="Classificar os artigos" style="text;html=1;align=center;verticalAlign=middle;whiteSpace=wrap;rounded=0;" vertex="1" parent="1">
          <mxGeometry x="620" y="928" width="120" height="60" as="geometry" />
        </mxCell>
        <mxCell id="Ufxc-FMci68aDgZi-Pgl-75" value="" style="ellipse;whiteSpace=wrap;html=1;fillColor=#fff2cc;strokeColor=#d6b656;" vertex="1" parent="1">
          <mxGeometry x="620" y="1029" width="120" height="80" as="geometry" />
        </mxCell>
        <mxCell id="Ufxc-FMci68aDgZi-Pgl-77" value="Fim" style="text;html=1;align=center;verticalAlign=middle;whiteSpace=wrap;rounded=0;" vertex="1" parent="1">
          <mxGeometry x="650" y="1054" width="60" height="30" as="geometry" />
        </mxCell>
        <mxCell id="Ufxc-FMci68aDgZi-Pgl-78" value="" style="ellipse;whiteSpace=wrap;html=1;fillColor=#fff2cc;strokeColor=#d6b656;" vertex="1" parent="1">
          <mxGeometry x="150" y="59" width="120" height="80" as="geometry" />
        </mxCell>
        <mxCell id="Ufxc-FMci68aDgZi-Pgl-79" value="Início" style="text;html=1;align=center;verticalAlign=middle;whiteSpace=wrap;rounded=0;" vertex="1" parent="1">
          <mxGeometry x="180" y="84" width="60" height="30" as="geometry" />
        </mxCell>
      </root>
    </mxGraphModel>
  </diagram>
</mxfile>
